<svg xmlns="http://www.w3.org/2000/svg" viewBox="0 0 416.6 143.5"><g id="Layer_2" data-name="Layer 2"><g id="Layer_1-2" data-name="Layer 1"><g id="Layer_2-2" data-name="Layer 2"><g id="Layer_1-2-2" data-name="Layer 1-2"><g id="Layer_2-2-2" data-name="Layer 2-2"><g id="Layer_1-2-2-2" data-name="Layer 1-2-2"><path d="M27.5,143.5,8,28.3H7.3v95.6l5.5,12.4H0l5.5-12.4V18.6L1.1,3.6H18.9L33.2,88.3h.9L46.4,3.5H62L58.8,15V124.8l3.3,11.5H42.3l3.3-11.5V28.3h-.9Z"/><path d="M64,68.7C64,31,75.5,0,89.6,0s25.6,31,25.6,68.7c0,38.4-11.5,69.7-25.6,69.7S64,107.1,64,68.7Zm37.2,0c0-43.4-3.5-64.6-11.6-64.6C81.8,4.1,78,23.5,78,68.7c0,44.1,3.5,65.6,11.6,65.6,7.7,0,11.5-19.6,11.6-65.6Z"/><path d="M118.2,68.7C118.2,31,129.7,0,143.7,0s25.6,31,25.6,68.7c0,38.4-11.5,69.7-25.6,69.7S118.2,107.1,118.2,68.7Zm37.1,0c0-43.4-3.5-64.6-11.6-64.6-7.8,0-11.6,19.5-11.6,64.6,0,44.1,3.5,65.6,11.6,65.6C151.5,134.3,155.3,114.7,155.3,68.7Z"/><path d="M213.4,143.5,177.1,28.8h-.9v95l5.5,12.4H169l5.5-12.4V20.7L169.2,5.1,187,1.6l23.7,74.9h.9V15.9L206.1,3.5h12.8l-5.5,12.4Z"/><path d="M218.9,68.7C218.9,31,231.2,0,246.4,0c5.6,0,13.2,4.1,16.8,9v3.2l1.7,44.1C259.1,22.2,253.2,4,246.4,4,238.3,4,233,29.3,233,68.6c0,40,5.2,65.7,13.4,65.7,6.8,0,12.8-19.6,18.9-55.9l-2,47.6v3.2c-3.6,5.1-11.2,9.2-16.9,9.2C231.2,138.4,218.9,107.1,218.9,68.7Z"/><path d="M270.6,124.8V15L267.4,3.5h20.2L283.9,15V63.7h15.5V15L295.6,3.5h20.2L312.5,15V124.8l3.3,11.5H295.6l3.8-11.5V67.6H283.9v57.2l3.8,11.5H267.5Z"/><path d="M317.8,68.7C317.8,31,329.3,0,343.3,0s25.6,31,25.6,68.7c0,38.4-11.5,69.7-25.6,69.7S317.8,107.1,317.8,68.7Zm37.1,0c0-43.4-3.5-64.6-11.6-64.6-7.8,0-11.6,19.5-11.6,64.6,0,44.1,3.5,65.6,11.6,65.6C351.1,134.3,354.9,114.7,354.9,68.7Z"/><path d="M373.7,96.1V15.9L370.5,3.5h19.7L387,15.9l.1,74.3c0,18.4,4.6,29.2,11.3,29.2s11-10.4,11-28.5l-.1-75L403.8,3.5h12.8L411,15.9l.1,78.2c0,26-7.7,44.2-18.7,44.2S373.7,121,373.7,96.1Z"/></g></g></g></g></g></g></svg>