<svg width="256" height="128" viewBox="0 0 256 128" fill="none" xmlns="http://www.w3.org/2000/svg">
<path fill-rule="evenodd" clip-rule="evenodd" d="M155.562 91.2227C142.42 100.927 123.311 106.109 106.88 106.109C83.8417 106.109 63.0988 97.5895 47.4085 83.415C46.1759 82.3002 47.2793 80.7822 48.7589 81.6477C65.6931 91.5037 86.6308 97.4286 108.257 97.4286C122.844 97.4286 138.89 94.4106 153.645 88.1481C155.874 87.201 157.737 89.6072 155.557 91.225M161.036 84.9625C159.359 82.81 149.934 83.9474 145.669 84.4504C144.378 84.609 144.181 83.4829 145.343 82.6741C152.865 77.3767 165.214 78.9061 166.657 80.6802C168.1 82.4543 166.283 94.8411 159.212 100.75C158.124 101.656 157.091 101.174 157.574 99.9708C159.16 96.0057 162.721 87.1217 161.036 84.9625Z" fill="#FF9900"/>
<path fill-rule="evenodd" clip-rule="evenodd" d="M145.967 45.2825V40.1347C145.962 39.9623 145.993 39.7908 146.057 39.6306C146.12 39.4704 146.216 39.325 146.338 39.203C146.46 39.0811 146.606 38.9853 146.766 38.9215C146.926 38.8577 147.097 38.8272 147.27 38.8319H170.317C171.056 38.8319 171.649 39.3643 171.649 40.1347V44.5416C171.64 45.2802 171.015 46.2477 169.914 47.777L157.973 64.8291C162.414 64.7203 167.095 65.3819 171.119 67.6499C172.025 68.162 172.252 68.9119 172.343 69.6528V75.1473C172.343 75.895 171.513 76.7741 170.643 76.3209C163.551 72.6051 154.133 72.1973 146.293 76.3594C145.493 76.7945 144.655 75.9244 144.655 75.1767V69.9587C144.655 69.1204 144.664 67.693 145.502 66.4173L159.339 46.5739H147.32C146.581 46.5739 145.987 46.0528 145.987 45.2825M61.8874 77.4062H54.8771C54.2065 77.3564 53.6763 76.8534 53.6242 76.2122V40.223C53.6242 39.5025 54.2269 38.9316 54.9746 38.9316H61.5135C62.1932 38.961 62.737 39.4844 62.7869 40.1324V44.8361H62.916C64.6221 40.2887 67.8282 38.168 72.1467 38.168C76.5354 38.168 79.277 40.2887 81.2504 44.8361C82.9498 40.2887 86.8015 38.168 90.9365 38.168C93.8752 38.168 97.0903 39.3802 99.0524 42.1036C101.273 45.1307 100.82 49.5307 100.82 53.387L100.804 76.1034C100.804 76.8239 100.201 77.4062 99.4535 77.4062H92.4296C91.7499 77.3564 91.1676 76.7945 91.1676 76.1034V57.0032C91.1676 55.4851 91.3036 51.6968 90.9705 50.258C90.4494 47.8427 88.8792 47.1608 86.8468 47.1608C85.1475 47.1608 83.3757 48.2936 82.6552 50.1108C81.9347 51.9279 82.0049 54.964 82.0049 57.0054V76.083C82.0049 76.8035 81.4023 77.3858 80.6546 77.3858H73.6307C72.9216 77.336 72.3687 76.7741 72.3687 76.083L72.3597 57.0054C72.3597 52.9905 73.0213 47.0815 68.0389 47.0815C62.9999 47.0815 63.197 52.841 63.197 57.0054V76.083C63.197 76.8035 62.5943 77.3858 61.8466 77.3858M191.493 38.1975C201.897 38.1975 207.53 47.1336 207.53 58.494C207.53 69.4716 201.306 78.1788 191.493 78.1788C181.297 78.1788 175.712 69.2427 175.712 58.1088C175.712 46.9047 181.344 38.1703 191.493 38.1703M191.552 45.5181C186.386 45.5181 186.057 52.56 186.057 56.9488C186.057 61.3375 185.989 70.7359 191.49 70.7359C196.924 70.7359 197.182 63.1615 197.182 58.5461C197.182 55.51 197.053 51.878 196.14 48.9983C195.351 46.4924 193.783 45.5158 191.554 45.5158M221.024 77.4062H214.041C213.362 77.3564 212.779 76.7945 212.779 76.1034L212.77 40.1052C212.829 39.4436 213.411 38.9316 214.121 38.9316H220.623C221.235 38.961 221.738 39.3757 221.876 39.9376V45.4433H222.005C223.968 40.5221 226.718 38.1748 231.562 38.1748C234.734 38.1748 237.775 39.3077 239.749 42.4163C241.561 45.2938 241.561 50.138 241.561 53.6204V76.2779C241.482 76.9123 240.9 77.4107 240.211 77.4107H233.191C232.55 77.3609 232.018 76.8896 231.95 76.2779V56.7313C231.95 52.7957 232.403 47.0339 227.561 47.0339C225.855 47.0339 224.287 48.1781 223.483 49.9114C222.497 52.1091 222.368 54.3001 222.368 56.7267V76.1079C222.359 76.8285 221.747 77.4107 220.997 77.4107M127.592 60.1911C127.592 62.9236 127.66 65.1757 126.278 67.6273C125.163 69.5985 123.389 70.8129 121.424 70.8129C118.733 70.8129 117.153 68.7624 117.153 65.7331C117.153 59.756 122.51 58.6708 127.587 58.6708V60.1888M134.656 77.2816C134.192 77.6962 133.523 77.7257 133.002 77.4493C130.675 75.5166 130.252 74.6171 128.978 72.775C125.131 76.6993 122.401 77.873 117.419 77.873C111.512 77.873 106.924 74.2342 106.924 66.9453C106.924 61.2537 110.001 57.3793 114.401 55.4851C118.207 53.8085 123.522 53.5139 127.587 53.0494V52.1431C127.587 50.4755 127.716 48.5043 126.726 47.0633C125.879 45.7719 124.241 45.2394 122.791 45.2394C120.117 45.2394 117.738 46.6102 117.158 49.4537C117.04 50.0881 116.576 50.7067 115.935 50.7361L109.137 50.0065C108.566 49.8774 107.925 49.4174 108.095 48.5338C109.654 40.2865 117.113 37.8032 123.774 37.8032C127.186 37.8032 131.645 38.7095 134.337 41.2925C137.749 44.4781 137.423 48.7287 137.423 53.3553V64.283C137.423 67.5683 138.782 69.0071 140.067 70.7857C140.511 71.4201 140.611 72.1769 140.038 72.6504L134.677 77.3269L134.668 77.3043M35.6636 60.2137C35.6636 62.9462 35.7316 65.1984 34.3495 67.6499C33.2347 69.6211 31.472 70.8356 29.4963 70.8356C26.8045 70.8356 25.2366 68.785 25.2366 65.7557C25.2366 59.7787 30.5929 58.6934 35.6591 58.6934V60.2115M42.7282 77.3043C42.2637 77.7189 41.5953 77.7483 41.0742 77.4719C38.7473 75.5392 38.3553 74.6397 37.0503 72.7977C33.203 76.722 30.4796 77.8956 25.4904 77.8956C19.5949 77.8979 15 74.2591 15 66.9725C15 61.2809 18.0859 57.4065 22.477 55.5123C26.2834 53.8356 31.5989 53.5411 35.6636 53.0766V52.1703C35.6636 50.5027 35.7928 48.5315 34.8162 47.0905C33.9552 45.799 32.3239 45.2666 30.8806 45.2666C28.207 45.2666 25.8212 46.6374 25.2163 49.4809C25.0984 50.1153 24.634 50.7338 24.0041 50.7633L17.1978 50.0337C16.6268 49.9046 15.9969 49.4446 16.1555 48.561C17.7234 40.3137 25.1732 37.8304 31.8345 37.8304C35.2467 37.8304 39.7057 38.7367 42.3974 41.3197C45.8096 44.5053 45.4834 48.7558 45.4834 53.3825V64.3102C45.4834 67.5955 46.8428 69.0343 48.1275 70.8129C48.5806 71.4473 48.6803 72.2041 48.1048 72.6776L42.7577 77.3269L42.735 77.3043" fill="white"/>
</svg>
