<svg width="256" height="128" viewBox="0 0 256 128" fill="none" xmlns="http://www.w3.org/2000/svg">
<path fill-rule="evenodd" clip-rule="evenodd" d="M127.396 92.195C127.396 92.4576 127.626 92.6734 127.91 92.6734H140.186C140.47 92.6734 140.7 92.4612 140.7 92.195V36.874C140.7 36.6114 140.47 36.3956 140.186 36.3956H127.91C127.626 36.3956 127.396 36.6078 127.396 36.874V92.195ZM37.1428 92.195C37.1428 92.4576 37.3728 92.6734 37.6567 92.6734H49.933C50.2169 92.6734 50.4469 92.4612 50.4469 92.195V57.3671C50.4469 57.1045 50.2169 56.8887 49.933 56.8887H37.6567C37.3728 56.8887 37.1428 57.1009 37.1428 57.3671V92.195ZM90.74 80.5473C81.8455 82.166 73.278 76.058 71.6356 66.932C69.9933 57.806 75.8942 49.0684 84.7887 47.4497C93.6833 45.831 102.251 51.939 103.893 61.065C105.532 70.191 99.6345 78.9286 90.74 80.5473ZM119.292 83.1661L113.219 78.2631L112.982 77.8746L113.043 77.4214C115.947 71.9321 117.107 65.4643 115.921 58.8743C113.115 43.2734 98.233 32.9207 82.6828 35.7517C67.1291 38.5826 56.797 53.5217 59.6002 69.1227C62.4069 84.7236 77.2886 95.0763 92.8388 92.2453C97.162 91.4575 101.083 89.7345 104.429 87.3208C104.677 87.1409 105.011 87.1481 105.248 87.3388L111.763 92.5979C111.983 92.7777 112.31 92.7345 112.493 92.5079L119.361 83.8999C119.548 83.6733 119.515 83.3459 119.292 83.1661ZM219.486 36.3956H207.206C206.922 36.3956 206.692 36.6078 206.692 36.874V92.195C206.692 92.4576 206.922 92.6734 207.206 92.6734H219.482C219.766 92.6734 219.996 92.4612 219.996 92.195V36.874C220 36.6114 219.77 36.3956 219.486 36.3956ZM43.7948 35.2948C39.4895 35.2948 36 38.8057 36 43.1367C36 47.4677 39.4895 50.9785 43.7948 50.9785C48.1002 50.9785 51.5897 47.4677 51.5897 43.1367C51.5897 38.8057 48.1002 35.2948 43.7948 35.2948ZM200.195 36.3956H187.114C186.887 36.3956 186.682 36.5107 186.575 36.6941L174.42 58.4319L174.255 58.5865L174.212 58.5937L174.018 58.4534L174.004 58.4283L161.85 36.6905C161.745 36.5071 161.537 36.392 161.31 36.392H148.229C147.881 36.392 147.478 36.7553 147.766 37.2948L167.208 70.2018C167.395 70.5184 167.492 70.8817 167.492 71.2522V92.0978C167.492 92.4144 167.747 92.6698 168.06 92.6698H180.361C180.677 92.6698 180.929 92.4144 180.929 92.0978V71.2522C180.929 70.8817 181.026 70.522 181.213 70.2018L200.655 37.2948C200.946 36.7589 200.543 36.3956 200.195 36.3956Z" fill="#00DC5A"/>
</svg>
