<svg width="256" height="128" viewBox="0 0 256 128" fill="none" xmlns="http://www.w3.org/2000/svg">
<path d="M79.2202 66.0257V65.8287C90.0717 65.5289 94.748 59.7388 94.748 53.0493C94.748 46.197 88.7527 40.6039 78.9033 40.6039H61.3629V87.3705H69.1482V66.8137H72.4884C74.0682 66.819 75.6125 67.2832 76.9335 68.1499C78.2056 69.0945 79.3212 70.2333 80.2394 71.5246C81.507 73.2377 83.0058 75.2334 88.9668 83.4304C89.6653 84.5619 90.628 85.507 91.7722 86.1843C92.9164 86.8617 94.208 87.2511 95.5359 87.3191H101.454L93.7459 76.8608C88.0333 68.8351 81.6783 66.6167 79.2202 66.0257ZM77.593 63.6959H69.1482V43.6959H77.593C80.5649 43.6959 82.903 44.6638 84.3762 46.2655C84.3762 46.2655 86.7229 48.2441 86.7229 53.6317C86.7229 59.0193 84.3762 60.9893 84.3762 60.9893C83.503 61.8969 82.4463 62.6077 81.2765 63.0745C80.1068 63.5412 78.851 63.7531 77.593 63.6959ZM36.4826 40.5696H18V87.379H25.8881V64.8694C26.3249 65.7259 27.601 66.7966 31.3523 66.7966H36.4397C46.3662 66.7966 52.2587 60.955 52.2587 53.7088C52.2587 46.4625 46.3662 40.5696 36.4397 40.5696H36.4826ZM41.9468 60.9979C41.0799 61.9084 40.0265 62.6209 38.8587 63.0866C37.6909 63.5523 36.4363 63.7601 35.1807 63.6959H25.8881V43.6874H35.1293C38.1013 43.6874 40.4394 44.6638 41.9126 46.2998C41.9126 46.2998 44.2593 48.5353 44.2593 53.666C44.2507 59.045 41.904 61.0236 41.904 61.0236L41.9468 60.9979ZM223.132 40.1328H221.582L199.074 87.3876H203.091L209.626 73.2805H224.605C228.143 73.2805 229.376 72.2013 229.796 71.3105L235.388 83.1049C236.035 84.4286 237.027 85.5526 238.261 86.3579C239.494 87.1631 240.922 87.6196 242.394 87.6788H246.026L223.132 40.1328ZM211.09 70.1114L220.066 50.848L229.23 70.1799L211.09 70.1114ZM199.194 40.5696L187.649 60.4839C186.906 61.8092 186.022 63.0498 185.011 64.1842C184.911 64.3179 184.782 64.4274 184.634 64.5045C184.485 64.5816 184.322 64.6244 184.155 64.6296C183.997 64.618 183.844 64.5722 183.707 64.4952C183.569 64.4183 183.45 64.3121 183.358 64.1842C182.323 63.0638 181.428 61.8212 180.694 60.4839L171.308 44.1499C170.688 43.0498 169.784 42.1369 168.69 41.5069C167.595 40.877 166.352 40.5532 165.09 40.5696H159.677C159.677 40.5696 165.92 51.1991 169.098 56.1242C171.508 60.0323 174.806 63.3163 178.725 65.7088V87.3705H186.57V65.5203C189.724 63.2447 192.391 60.3617 194.415 57.0407C197.533 52.1242 204.487 40.5696 204.487 40.5696H199.194ZM131.242 38C126.099 37.9966 121.07 39.5189 116.791 42.3742C112.513 45.2295 109.177 49.2896 107.207 54.041C105.236 58.7924 104.719 64.0215 105.72 69.067C106.721 74.1124 109.197 78.7476 112.832 82.386C116.468 86.0245 121.101 88.5029 126.146 89.5076C131.19 90.5124 136.419 89.9984 141.172 88.0307C145.924 86.063 149.986 82.73 152.844 78.4533C155.702 74.1765 157.227 69.1482 157.227 64.0043C157.229 60.5902 156.559 57.2091 155.254 54.0542C153.949 50.8993 152.036 48.0325 149.622 45.6175C147.209 43.2026 144.344 41.2868 141.19 39.9798C138.036 38.6727 134.656 38 131.242 38ZM147.772 72.3126C147.276 76.3491 145.321 80.0648 142.276 82.7595C139.23 85.4542 135.304 86.9417 131.238 86.9417C127.171 86.9417 123.245 85.4542 120.2 82.7595C117.154 80.0648 115.199 76.3491 114.704 72.3126C114.433 69.5433 114.324 66.7606 114.378 63.9786C114.32 61.208 114.429 58.4364 114.704 55.6788C115.191 51.6353 117.143 47.9105 120.191 45.2085C123.238 42.5065 127.169 41.0145 131.242 41.0145C135.315 41.0145 139.246 42.5065 142.293 45.2085C145.341 47.9105 147.293 51.6353 147.78 55.6788C148.048 58.4369 148.153 61.2082 148.097 63.9786C148.156 66.7606 148.047 69.5436 147.772 72.3126Z" fill="white"/>
</svg>
