<svg width="256" height="128" viewBox="0 0 256 128" fill="none" xmlns="http://www.w3.org/2000/svg">
<path fill-rule="evenodd" clip-rule="evenodd" d="M39.9508 82.3507C41.5426 88.4896 47.2765 93.1548 50.1796 92.9671C50.2701 92.9671 61.1229 90.8645 67.1191 80.5109C71.7044 72.4571 70.2031 64.6755 63.8542 64.4878C61.557 64.6755 36.9482 70.6267 39.9508 82.2475V82.3507Z" fill="url(#paint0_linear_485_417)"/>
<path fill-rule="evenodd" clip-rule="evenodd" d="M34.1275 38.4959C33.5125 38.7681 32.8885 39.0497 32.3639 39.4158C32.0112 39.6036 31.5681 39.8758 31.2154 40.0541H31.3058C30.1572 40.8801 29.1895 41.7907 28.3936 42.8889C20.453 53.7869 47.0062 61.7468 61.3048 61.7468C67.8346 66.5997 69.6886 48.0141 63.3307 42.795C58.474 38.4959 52.2156 35.9333 45.4235 35.9333C41.4532 35.9333 37.6637 36.8532 34.218 38.4021L34.1275 38.4959Z" fill="url(#paint1_linear_485_417)"/>
<path fill-rule="evenodd" clip-rule="evenodd" d="M29.1887 39.5003C28.3928 39.9603 27.5969 40.5047 26.8915 41.0585C25.6525 41.9784 24.5129 42.9828 23.5362 44.081C22.478 45.1793 21.5103 46.3714 20.624 47.648C19.7377 48.9246 18.9599 50.2106 18.2545 51.5904C18.164 51.7782 18.0736 51.9565 17.9922 52.1442C20.018 52.7825 32.1913 48.7556 35.8089 43.0767C35.8089 43.0767 38.6307 38.4959 33.2495 38.4115C32.6254 38.4021 30.9523 38.4959 29.1887 39.5003Z" fill="url(#paint2_linear_485_417)"/>
<path fill-rule="evenodd" clip-rule="evenodd" d="M14.9004 65.5955V65.6894C14.9004 67.3414 15.0813 68.9841 15.2531 70.5423C15.5154 72.1005 15.8681 73.6587 16.4017 75.2075C16.8449 76.6718 17.4599 78.1362 18.1653 79.5066C18.8707 80.8771 19.6666 82.2569 20.5439 83.4396C21.4302 84.7256 22.3979 85.9084 23.456 87.0066C24.5142 88.1048 25.6628 89.1092 26.8114 90.0291C27.6977 90.6674 28.6654 91.3151 29.6331 91.9534C31.4871 93.0517 32.1021 92.9578 32.3644 92.9578C32.7171 92.3195 32.9794 85.2701 32.7171 83.4396C32.4548 81.6092 31.9212 77.9484 28.4845 71.9034C27.9509 70.899 25.2196 66.4121 23.2842 63.568C21.2493 60.6487 18.7803 57.9923 16.664 55.1575C16.5735 55.4297 16.4831 55.7958 16.4017 56.0774C15.9585 57.5417 15.5154 59.0999 15.2531 60.7426C14.9908 62.3008 14.9004 63.9434 14.9004 65.5955Z" fill="url(#paint3_linear_485_417)"/>
<path fill-rule="evenodd" clip-rule="evenodd" d="M30.6934 58.2737C31.5797 65.1448 41.1935 69.5378 44.3679 71.0021C44.6302 71.096 67.7467 80.5202 71.1835 76.6811C72.5039 73.1986 73.2093 69.4439 73.2093 65.5109C73.2093 56.4433 69.3294 48.2018 63.2428 42.7105C61.3888 41.1523 58.3048 41.1523 57.328 41.1523C48.8628 41.4246 29.4543 48.2956 30.7748 58.2737H30.6934Z" fill="url(#paint4_linear_485_417)"/>
<path fill-rule="evenodd" clip-rule="evenodd" d="M69.1555 80.0602H69.065C66.4151 80.3324 54.3323 85.3731 52.9214 90.226C52.216 92.7886 54.9473 93.7085 57.5068 92.4225C62.5353 89.6722 66.596 85.5514 69.4178 80.4263C69.5986 80.154 69.4178 79.9663 69.1555 79.9663V80.0602Z" fill="url(#paint5_linear_485_417)"/>
<path d="M178.986 52.8671C178.723 52.8671 178.28 52.7732 177.222 52.7732C176.336 52.7732 175.459 52.8671 174.663 53.0454C171.398 53.6837 169.281 55.5141 167.518 57.5323V53.6837H157.289V88.1142H167.518V73.7431C167.518 72.0066 167.608 70.4484 167.78 69.0779C167.952 67.7075 168.395 66.4215 169.019 65.4171C169.634 64.4127 170.52 63.5867 171.669 63.0329C172.818 62.4791 174.319 62.2068 176.345 62.2068C177.141 62.2068 177.846 62.3007 178.552 62.3946C179.257 62.4884 179.962 62.6668 180.668 62.9484V53.2331C180.134 53.0454 179.61 52.9609 178.995 52.9609V52.8671H178.986Z" fill="#093DAC"/>
<path d="M206.326 52.8671C206.063 52.8671 205.62 52.7732 204.562 52.7732C203.676 52.7732 202.798 52.8671 202.002 53.0454C198.738 53.6837 196.621 55.5141 194.858 57.5323V53.6837H184.629V88.1142H194.858V73.7431C194.858 72.0066 194.948 70.4484 195.12 69.0779C195.292 67.7075 195.735 66.4215 196.359 65.4171C196.974 64.4127 197.86 63.5867 199.009 63.0329C200.158 62.4791 201.659 62.2068 203.685 62.2068C204.481 62.2068 205.186 62.3007 205.891 62.3946C206.597 62.4884 207.302 62.6668 208.008 62.9484V53.2331C207.474 53.0454 206.95 52.9609 206.335 52.9609V52.8671H206.326Z" fill="#093DAC"/>
<path d="M98.3503 52.2287H84.5039V42.429H122.787V52.2287H109.031V88.1235H98.3503V52.2287Z" fill="#093DAC"/>
<path d="M142.902 66.9659C142.992 65.1355 142.368 63.6712 141.229 62.3852C140.08 61.0992 138.498 60.4609 136.644 60.4609C135.495 60.4609 134.527 60.6486 133.641 61.0147C132.755 61.3808 132.049 61.8408 131.434 62.479C130.819 63.0329 130.376 63.765 130.023 64.4972C129.671 65.3232 129.49 66.0554 129.408 66.9659H142.902ZM151.548 82.1724C149.875 84.3689 147.84 86.0209 145.371 87.2037C142.902 88.3958 140.252 88.9402 137.611 88.9402C135.052 88.9402 132.673 88.4803 130.376 87.6542C128.079 86.8282 126.143 85.5516 124.461 83.9934C122.779 82.4352 121.459 80.5109 120.491 78.3144C119.523 76.1179 119.08 73.6492 119.08 70.8989C119.08 68.1486 119.523 65.6799 120.491 63.4834C121.459 61.2869 122.788 59.3627 124.461 57.8045C126.134 56.2463 128.079 54.9697 130.376 54.1436C132.673 53.3176 135.052 52.8577 137.611 52.8577C139.99 52.8577 142.106 53.3176 144.051 54.1436C145.995 54.9697 147.668 56.2463 148.989 57.8045C150.309 59.3627 151.367 61.2869 152.073 63.4834C152.778 65.6799 153.131 68.1486 153.131 70.8989V74.1937H129.309C129.752 76.2118 130.629 77.8545 131.959 79.0466C133.279 80.2387 135.043 80.877 136.987 80.877C138.66 80.877 140.071 80.5109 141.22 79.6849C142.368 78.8589 143.427 77.9484 144.222 76.6624L151.367 82.1536H151.548V82.1724Z" fill="#093DAC"/>
<path d="M231.649 75.9395V75.3857C231.649 74.6535 231.206 74.0152 230.501 73.7336C228.999 73.1798 227.236 72.9076 225.382 72.9076C221.149 72.9076 218.59 74.6441 218.59 77.7605V77.8544C218.59 80.5108 220.797 82.069 223.971 82.069C228.565 82.0784 231.649 79.5158 231.649 75.9395ZM209.066 78.2298V78.136C209.066 70.4483 214.8 66.9658 223.003 66.9658C226.53 66.9658 228.999 67.5196 231.468 68.4301V67.8763C231.468 63.7555 228.909 61.4652 224.061 61.4652C220.272 61.4652 217.622 62.1973 214.538 63.3894L212.069 55.7862C215.858 54.0497 219.657 52.9514 225.481 52.9514C230.863 52.9514 234.742 54.4157 237.211 56.8844C239.771 59.5409 241.001 63.3894 241.001 68.0546V88.3769H231.478V84.6222C229.099 87.2786 225.834 89.109 220.977 89.109C214.448 89.109 209.066 85.3544 209.066 78.3988V78.2298Z" fill="#093DAC"/>
<defs>
<linearGradient id="paint0_linear_485_417" x1="54.7419" y1="92.7892" x2="54.7419" y2="64.4972" gradientUnits="userSpaceOnUse">
<stop stop-color="#3767C9"/>
<stop offset="0.1882" stop-color="#2452B9"/>
<stop offset="1" stop-color="#113CA9"/>
</linearGradient>
<linearGradient id="paint1_linear_485_417" x1="47.0989" y1="59.0951" x2="47.0989" y2="36.022" gradientUnits="userSpaceOnUse">
<stop stop-color="#3767C9"/>
<stop offset="0.1882" stop-color="#2452B9"/>
<stop offset="1" stop-color="#113CA9"/>
</linearGradient>
<linearGradient id="paint2_linear_485_417" x1="17.8974" y1="45.3031" x2="34.6587" y2="45.3031" gradientUnits="userSpaceOnUse">
<stop stop-color="#00C95F"/>
<stop offset="1" stop-color="#3B93FE"/>
</linearGradient>
<linearGradient id="paint3_linear_485_417" x1="14.8993" y1="74.0662" x2="32.7192" y2="74.0662" gradientUnits="userSpaceOnUse">
<stop stop-color="#00C95F"/>
<stop offset="1" stop-color="#3B93FE"/>
</linearGradient>
<linearGradient id="paint4_linear_485_417" x1="31.7509" y1="59.3726" x2="73.1247" y2="59.3726" gradientUnits="userSpaceOnUse">
<stop stop-color="#00C95F"/>
<stop offset="1" stop-color="#3B93FE"/>
</linearGradient>
<linearGradient id="paint5_linear_485_417" x1="53.362" y1="86.4843" x2="69.4175" y2="86.4843" gradientUnits="userSpaceOnUse">
<stop stop-color="#00C95F"/>
<stop offset="1" stop-color="#3B93FE"/>
</linearGradient>
</defs>
</svg>
