<svg width="256" height="128" viewBox="0 0 256 128" fill="none" xmlns="http://www.w3.org/2000/svg">
<path d="M51.3947 54.5263C56.0606 57.8359 61.7765 59.7833 67.9499 59.7833V47.9951C66.7816 47.9953 65.6162 47.8745 64.4732 47.6341V56.9131C58.3003 56.9131 52.5851 54.9658 47.918 51.6564V75.7125C47.918 87.7467 38.0869 97.5015 25.9602 97.5015C21.4355 97.5015 17.2299 96.1441 13.7363 93.8162C17.7237 97.8618 23.2843 100.371 29.4362 100.371C41.5636 100.371 51.3952 90.6166 51.3952 78.5819V54.5263H51.3947ZM55.6836 42.6335C53.2991 40.0484 51.7335 36.7078 51.3947 33.0145V31.4983H48.1001C48.9294 36.1924 51.758 40.2028 55.6836 42.6335ZM21.4064 84.5815C20.0742 82.8482 19.3542 80.7277 19.3575 78.5475C19.3575 73.0435 23.8542 68.5808 29.4019 68.5808C30.4358 68.5806 31.4635 68.7377 32.4488 69.0479V56.9963C31.2974 56.8397 30.1353 56.7732 28.9736 56.7976V66.178C27.9876 65.8678 26.9594 65.7102 25.9252 65.7112C20.3775 65.7112 15.881 70.1734 15.881 75.6781C15.881 79.5703 18.1286 82.94 21.4064 84.5815Z" fill="#FF004F"/>
<path d="M47.9204 51.6561C52.5875 54.9655 58.3027 56.9128 64.4756 56.9128V47.6339C61.0299 46.9056 57.9795 45.1188 55.686 42.6335C51.7602 40.2026 48.9318 36.1922 48.1025 31.4983H39.4483V78.5815C39.4287 84.0704 34.9397 88.5149 29.4038 88.5149C26.1417 88.5149 23.2435 86.9718 21.4081 84.5815C18.1305 82.94 15.8829 79.57 15.8829 75.6783C15.8829 70.1741 20.3794 65.7114 25.9271 65.7114C26.9901 65.7114 28.0145 65.8757 28.9755 66.1783V56.7979C17.0619 57.0421 7.48047 66.7017 7.48047 78.5817C7.48047 84.5121 9.86647 89.8882 13.739 93.8164C17.2325 96.1441 21.4381 97.5018 25.9628 97.5018C38.0898 97.5018 47.9207 87.7464 47.9207 75.7125V51.6561H47.9204Z" fill="white"/>
<path d="M64.4735 47.6339V45.125C61.3664 45.1297 58.3202 44.2662 55.684 42.6333C58.0176 45.1686 61.0906 46.9167 64.4735 47.6339ZM48.1004 31.4983C48.0213 31.0497 47.9605 30.5982 47.9184 30.1449V28.6287H35.9693V75.7123C35.9502 81.2005 31.4614 85.645 25.9251 85.645C24.2997 85.645 22.7651 85.2621 21.406 84.5818C23.2415 86.9718 26.1396 88.5146 29.4018 88.5146C34.9371 88.5146 39.4269 84.0707 39.4462 78.5817V31.4983H48.1004ZM28.974 56.7979V54.1269C27.9755 53.9915 26.9689 53.9236 25.961 53.9241C13.8331 53.9238 4.00195 63.6792 4.00195 75.7123C4.00195 83.2564 7.86578 89.905 13.7372 93.8159C9.86465 89.888 7.47865 84.5116 7.47865 78.5815C7.47865 66.7017 17.0598 57.0421 28.974 56.7979Z" fill="#00F2EA"/>
<path d="M202.928 87.637C211.605 87.637 218.639 80.7094 218.639 72.1647C218.639 63.6202 211.605 56.6914 202.928 56.6914H200.561C209.238 56.6914 216.273 63.62 216.273 72.1647C216.273 80.7094 209.238 87.637 200.561 87.637H202.928Z" fill="#FF004F"/>
<path d="M200.345 56.6914H197.978C189.301 56.6914 182.266 63.62 182.266 72.1647C182.266 80.7094 189.301 87.637 197.978 87.637H200.345C191.667 87.637 184.633 80.7094 184.633 72.1647C184.632 63.6202 191.667 56.6914 200.345 56.6914Z" fill="#00F2EA"/>
<path d="M80.8965 49.698V57.5408H90.1496V87.4251H99.4064V57.7525H106.939L109.521 49.6982L80.8965 49.698ZM156.656 49.698V57.5408H165.909V87.4251H175.166V57.7525H182.698L185.28 49.6982L156.656 49.698ZM111.245 54.1486C111.245 51.6911 113.265 49.698 115.761 49.698C118.259 49.698 120.281 51.6911 120.281 54.1486C120.281 56.6064 118.26 58.5995 115.761 58.5995C113.265 58.5983 111.245 56.6064 111.245 54.1486ZM111.245 61.7796H120.281V87.4251H111.245V61.7796ZM124.156 49.698V87.4249H133.196V77.6762L135.994 75.1305L144.817 87.6366H154.502L141.802 69.4092L153.21 58.3865H142.234L133.196 67.288V49.698H124.156ZM221.651 49.698V87.4249H230.692V77.6762L233.489 75.1305L242.315 87.6366H252L239.301 69.4092L250.708 58.3865H239.732L230.692 67.288V49.698H221.651Z" fill="white"/>
<path d="M200.559 87.637C209.236 87.637 216.272 80.7094 216.272 72.1647C216.272 63.6202 209.236 56.6914 200.559 56.6914H200.345C191.667 56.6914 184.633 63.62 184.633 72.1647C184.633 80.7094 191.667 87.637 200.345 87.637H200.559ZM192.811 72.1647C192.811 68.0083 196.234 64.6415 200.454 64.6415C204.671 64.6415 208.093 68.0083 208.093 72.1647C208.093 76.3211 204.671 79.6898 200.454 79.6898C196.234 79.6891 192.811 76.3211 192.811 72.1647Z" fill="white"/>
</svg>
