<svg width="256" height="128" viewBox="0 0 256 128" fill="none" xmlns="http://www.w3.org/2000/svg">
<path d="M143.103 85.3003C137.226 85.3003 133.927 88.6051 133.927 94.5086C133.927 100.412 137.226 103.717 143.103 103.717C148.979 103.717 152.284 100.406 152.284 94.5086C152.284 88.611 148.985 85.3003 143.103 85.3003ZM143.103 100.768C140.235 100.768 138.662 98.5373 138.662 94.5086C138.662 90.48 140.235 88.2491 143.103 88.2491C145.97 88.2491 147.549 90.48 147.549 94.5086C147.549 98.5373 145.97 100.768 143.103 100.768ZM165.504 93.9331V103.07H170.234V92.9838C170.234 90.0172 171.239 88.5932 173.19 88.5932C175.265 88.5932 176.27 90.035 176.27 92.9838V103.07H181V92.9838C181 88.0177 178.422 85.5732 173.19 85.5732C168.241 85.5732 165.504 88.5932 165.504 93.9213M90.4187 99.9019H81.6627L89.4018 89.1806C91.1281 86.7361 90.6256 85.7987 87.3975 85.7987H75.0469V88.9552H83.797L76.0697 99.6349C74.296 102.151 74.7808 103.088 78.0739 103.088H90.4187V99.9019ZM113.145 88.6763V85.6563C105.548 85.2232 102.468 87.3829 102.468 93.2093V103.07H107.198V93.2093C107.198 89.5425 108.776 88.2491 113.145 88.6763ZM170.234 93.9331C170.234 88.5932 167.437 85.5851 162.495 85.5851C157.327 85.5851 154.75 88.0296 154.75 92.9957V103.082H159.479V92.9957C159.479 90.0291 160.485 88.6051 162.495 88.6051C164.505 88.6051 165.504 90.0469 165.504 92.9957V103.082H170.234V93.9331ZM122.812 85.3003C116.935 85.3003 113.636 88.6051 113.636 94.5086C113.636 100.412 116.935 103.717 122.812 103.717C128.689 103.717 131.993 100.406 131.993 94.5086C131.993 88.611 128.694 85.3003 122.812 85.3003ZM122.812 100.768C119.944 100.768 118.372 98.5373 118.372 94.5086C118.372 90.48 119.944 88.2491 122.812 88.2491C125.679 88.2491 127.258 90.48 127.258 94.5086C127.258 98.5373 125.685 100.768 122.812 100.768ZM98.4357 85.7987H93.7059V103.07H98.4357V85.7987ZM162.394 75.6588H174.437C179.599 75.6588 180.888 74.7926 180.888 71.3395V36.8023C180.888 31.6226 180.03 30.3291 176.589 30.3291H169.128L167.278 34.6426H172.942C174.23 34.6426 174.449 35.0757 174.449 36.8023V71.3395H166.048C164.759 71.3395 164.54 70.9063 164.54 69.1798V30.3291C159.379 30.3291 158.09 31.1895 158.09 34.6426V69.1798C158.09 74.3595 158.947 75.6588 162.394 75.6588ZM128.848 38.0957H138.745V33.7763H128.848V38.0957ZM150.788 72.6329L155.95 67.8863C150.113 62.9828 143.93 58.5093 137.45 54.501C139.966 44.5992 141.55 34.4822 142.18 24.2832L135.293 24.2832C134.861 35.942 132.496 49.7545 131.42 54.7206C131.201 56.014 131.633 56.8743 132.709 57.7406C135.718 60.1138 143.676 65.7267 150.777 72.6329M131.42 76.7328C131.42 76.7328 154.005 68.9662 154.005 40.2554C154.005 35.0757 153.142 33.7823 149.701 33.7823H145.326L143.463 38.0957H146.047C147.336 38.0957 147.549 38.5288 147.549 40.2554C147.549 65.5131 127.979 73.2796 127.979 73.2796L131.42 76.7328ZM77.6483 48.461H109.267L111.111 44.1416H77.6483V48.461ZM77.6483 61.4073H109.267L111.111 57.0938H77.6483V61.4073ZM79.3687 75.647H113.784C118.945 75.647 120.234 74.7807 120.234 71.3276V38.1016C120.234 32.922 119.371 31.6285 115.93 31.6285H95.4263L93.564 35.9479H112.294C113.37 35.9479 113.802 36.3751 113.802 38.1016V71.3276H83.0579C81.9819 71.3276 81.5562 70.8945 81.5562 69.1679V35.942H81.9819L83.7024 31.6226H81.5503C76.3535 31.6226 75.0469 32.4829 75.0469 35.942V69.1679C75.0469 74.3595 75.9278 75.6588 79.3687 75.6588" fill="white"/>
<path d="M86.5348 24.2832L81.5508 35.936H82.8396C87.5694 35.936 89.0771 35.0757 90.5788 31.6226L93.7063 24.2832H86.5348Z" fill="#F41B00"/>
</svg>
