<svg xmlns="http://www.w3.org/2000/svg" viewBox="0 0 417 144" fill="currentColor">
  <path d="M27.5 143.5L8 28.3H7.3V123.9L12.8 136.3H0L5.5 123.9V18.6L1.1 3.6H18.9L33.2 88.3H34.1L46.4 3.5H62L58.8 15V124.8L62.1 136.3H42.3L45.6 124.8V28.3H44.7L27.5 143.5Z" />
  <path d="M64 68.7C64 31 75.5 0 89.6 0C103.7 0 115.2 31 115.2 68.7C115.2 107.1 103.7 138.4 89.6 138.4C75.5 138.4 64 107.1 64 68.7ZM101.2 68.7C101.2 25.3 97.7 4.1 89.6 4.1C81.8 4.1 78 23.5 78 68.7C78 112.8 81.5 134.3 89.6 134.3C97.3 134.3 101.1 114.7 101.2 68.7Z" />
  <path d="M118.2 68.7C118.2 31 129.7 0 143.7 0C157.7 0 169.3 31 169.3 68.7C169.3 107.1 157.8 138.4 143.7 138.4C129.6 138.4 118.2 107.1 118.2 68.7ZM155.3 68.7C155.3 25.3 151.8 4.1 143.7 4.1C135.9 4.1 132.1 23.6 132.1 68.7C132.1 112.8 135.6 134.3 143.7 134.3C151.5 134.3 155.3 114.7 155.3 68.7Z" />
  <path d="M213.4 143.5L177.1 28.8H176.2V123.8L181.7 136.2H169L174.5 123.8V20.7L169.2 5.1L187 1.6L210.7 76.5H211.6V15.9L206.1 3.5H218.9L213.4 15.9V143.5Z" />
  <path d="M218.9 68.7C218.9 31 231.2 0 246.4 0C252 0 259.6 4.1 263.2 9V12.2L264.9 56.3C259.1 22.2 253.2 4 246.4 4C238.3 4 233 29.3 233 68.6C233 108.6 238.2 134.3 246.4 134.3C253.2 134.3 259.2 114.7 265.3 78.4L263.3 126V129.2C259.7 134.3 252.1 138.4 246.4 138.4C231.2 138.4 218.9 107.1 218.9 68.7Z" />
  <path d="M270.6 124.8V15L267.4 3.5H287.6L283.9 15V63.7H299.4V15L295.6 3.5H315.8L312.5 15V124.8L315.8 136.3H295.6L299.4 124.8V67.6H283.9V124.8L287.7 136.3H267.5L270.6 124.8Z" />
  <path d="M317.8 68.7C317.8 31 329.3 0 343.3 0C357.3 0 368.9 31 368.9 68.7C368.9 107.1 357.4 138.4 343.3 138.4C329.2 138.4 317.8 107.1 317.8 68.7ZM354.9 68.7C354.9 25.3 351.4 4.1 343.3 4.1C335.5 4.1 331.7 23.6 331.7 68.7C331.7 112.8 335.2 134.3 343.3 134.3C351.1 134.3 354.9 114.7 354.9 68.7Z" />
  <path d="M373.7 96.1V15.9L370.5 3.5H390.2L387 15.9L387.1 90.2C387.1 108.6 391.7 119.4 398.4 119.4C405.1 119.4 409.4 109 409.4 90.9L409.3 15.9L403.8 3.5H416.6L411 15.9L411.1 94.1C411.1 120.1 403.4 138.3 392.4 138.3C381.4 138.3 373.7 121 373.7 96.1Z" />
</svg>