<svg xmlns="http://www.w3.org/2000/svg" width="40" height="40" viewBox="0 0 40 40" fill="none">
  <path d="M11.8518 32.2448L6.53415 12.585H6.34326V28.8999L7.84312 31.0161H4.35254L5.8524 28.8999V10.9296L4.65251 8.36974H9.50661L13.4062 22.8245H13.6517L17.0059 8.35267H21.2601L20.3874 10.3152V29.0535L21.2873 31.0161H15.8878L16.7877 29.0535V12.585H16.5423L11.8518 32.2448Z" fill="white"/>
  <path d="M22.9927 19.4796C22.9927 13.0458 26.3469 7.75537 30.492 7.75537C32.0191 7.75537 34.0916 8.45507 35.0734 9.29129V9.8374L35.5369 17.3634C33.9553 11.544 32.3463 8.438 30.492 8.438C28.2831 8.438 26.8378 12.7557 26.8378 19.4625C26.8378 26.2888 28.2558 30.6748 30.492 30.6748C32.3463 30.6748 33.9825 27.3299 35.646 21.135L35.1006 29.2583V29.8044C34.1189 30.6748 32.0464 31.3745 30.492 31.3745C26.3469 31.3745 22.9927 26.0329 22.9927 19.4796Z" fill="white"/>
</svg>